# xmcd
#
# Track frame offsets:
#	150
#	16005
#	32605
#	47522
#	60807
#	93242
#	121539
#	136659
#	152448
#	170066
#	186120
#	199527
#	222201
#	235277
#	248315
#	263276
#
# Disc length: 3814 seconds
#
# Revision: 1
# Processed by: cddbd v1.5.2PL0 Copyright (c) Steve Scherf et al.
# Submitted via: audiograbber 1.83.01
#
DISCID=ae0ee410
DTITLE=Various Artist - American Hits
DYEAR=1900
DGENRE=
TTITLE0=The Three Degrees - Take Good Care Of Yourself
TTITLE1=America - A Horse With No Name
TTITLE2=Tony Orlando and Dawn - Tie A Yellow Ribbon
TTITLE3=Lobo - Me And You And A Dog Named Boo
TTITLE4=The Temptations - Papa Was A Rolling Stone (long Version)
TTITLE5=Andrea True Connection - More More More
TTITLE6=The Tymes - Ms. Grace
TTITLE7=Rose Royce - Car Wash (live)
TTITLE8=Irene Cara - Flashdance (What A Feeling)
TTITLE9=Candi Station - Nights On Broadway
TTITLE10=George McCrae - I Can't Leave You Alone
TTITLE11=Thelma Houston - Don't Leave Me This Way
TTITLE12=Lynn Anderson - Rose Garden
TTITLE13=Kenny Rogers - Ruby, Don't Take Your Love To Town
TTITLE14=The Doobie Brothers - Minute By Minute
TTITLE15=The Guess Who - American Woman
EXTD=
EXTT0=
EXTT1=
EXTT2=
EXTT3=
EXTT4=
EXTT5=
EXTT6=
EXTT7=
EXTT8=
EXTT9=
EXTT10=
EXTT11=
EXTT12=
EXTT13=
EXTT14=
EXTT15=
PLAYORDER=
